<svg xmlns="http://www.w3.org/2000/svg" width="48" height="48" viewBox="0 0 48 48" fill="none">
  <circle cx="24" cy="13" r="7" fill="#4F46E5"/>
  <path d="M8 44 L8 34 C8 26 16 23 24 23 C32 23 40 26 40 34 L40 44 Z" fill="#4F46E5"/>
  <polygon points="22.5,26 25.5,26 25,35 24,43 23,35" fill="white" opacity="0.85"/>
  <polygon points="21,23 27,23 25.5,27 22.5,27" fill="white" opacity="0.95"/>
  <line x1="24" y1="24" x2="24" y2="42" stroke="#E2E8F0" stroke-width="0.8" opacity="0.5"/>
  <polygon points="33,32 35,37 40,38 36,41 37,46 33,43 29,46 30,41 26,38 31,37" fill="white" opacity=".4"/>
  <polygon points="12,8 13.5,11.2 17,11.5 14,13.8 14.5,17 12,14.5 9.5,17 10,13.8 7,11.5 10.5,11.2" fill="#A5B4FC" opacity=".6"/>
</svg>
